<mxfile host="app.diagrams.net" agent="Mozilla/5.0 (Windows NT 10.0; Win64; x64) AppleWebKit/537.36 (KHTML, like Gecko) Chrome/133.0.0.0 Safari/537.36" version="24.8.0">
  <diagram name="Página-1" id="3Qf-ZKkISjVcc1xG9rWR">
    <mxGraphModel dx="2057" dy="1057" grid="0" gridSize="10" guides="1" tooltips="1" connect="1" arrows="1" fold="1" page="0" pageScale="1" pageWidth="827" pageHeight="1169" math="0" shadow="0">
      <root>
        <mxCell id="0" />
        <mxCell id="1" parent="0" />
        <mxCell id="mKKfAqHW9Lcpp3ZH1Yp7-2" value="" style="rounded=0;whiteSpace=wrap;html=1;" vertex="1" parent="1">
          <mxGeometry x="-566" y="-182" width="483" height="757" as="geometry" />
        </mxCell>
        <mxCell id="lAKQCbaZGqpKiCukRfTn-3" style="edgeStyle=none;curved=1;rounded=0;orthogonalLoop=1;jettySize=auto;html=1;entryX=0.5;entryY=0;entryDx=0;entryDy=0;fontSize=12;startSize=8;endSize=8;" parent="1" source="lAKQCbaZGqpKiCukRfTn-1" target="lAKQCbaZGqpKiCukRfTn-2" edge="1">
          <mxGeometry relative="1" as="geometry" />
        </mxCell>
        <mxCell id="lAKQCbaZGqpKiCukRfTn-1" value="" style="ellipse;whiteSpace=wrap;html=1;aspect=fixed;" parent="1" vertex="1">
          <mxGeometry x="-340" y="-155" width="38" height="38" as="geometry" />
        </mxCell>
        <mxCell id="lAKQCbaZGqpKiCukRfTn-5" style="edgeStyle=none;curved=1;rounded=0;orthogonalLoop=1;jettySize=auto;html=1;entryX=0.5;entryY=0;entryDx=0;entryDy=0;fontSize=12;startSize=8;endSize=8;" parent="1" source="lAKQCbaZGqpKiCukRfTn-2" target="lAKQCbaZGqpKiCukRfTn-4" edge="1">
          <mxGeometry relative="1" as="geometry" />
        </mxCell>
        <mxCell id="lAKQCbaZGqpKiCukRfTn-2" value="Fazer leitura de 5 funcionários" style="rounded=0;whiteSpace=wrap;html=1;" parent="1" vertex="1">
          <mxGeometry x="-381" y="-51" width="120" height="60" as="geometry" />
        </mxCell>
        <mxCell id="lAKQCbaZGqpKiCukRfTn-6" style="edgeStyle=none;curved=1;rounded=0;orthogonalLoop=1;jettySize=auto;html=1;entryX=1;entryY=0.5;entryDx=0;entryDy=0;fontSize=12;startSize=8;endSize=8;" parent="1" target="lAKQCbaZGqpKiCukRfTn-2" edge="1">
          <mxGeometry relative="1" as="geometry">
            <mxPoint x="-282" y="94" as="sourcePoint" />
            <Array as="points">
              <mxPoint x="-133" y="91" />
            </Array>
          </mxGeometry>
        </mxCell>
        <mxCell id="lAKQCbaZGqpKiCukRfTn-7" style="edgeStyle=none;curved=1;rounded=0;orthogonalLoop=1;jettySize=auto;html=1;fontSize=12;startSize=8;endSize=8;entryX=0.5;entryY=0;entryDx=0;entryDy=0;" parent="1" source="lAKQCbaZGqpKiCukRfTn-4" target="lAKQCbaZGqpKiCukRfTn-11" edge="1">
          <mxGeometry relative="1" as="geometry">
            <mxPoint x="-323" y="203" as="targetPoint" />
          </mxGeometry>
        </mxCell>
        <mxCell id="lAKQCbaZGqpKiCukRfTn-4" value="x &amp;lt; i" style="rhombus;whiteSpace=wrap;html=1;" parent="1" vertex="1">
          <mxGeometry x="-361" y="55" width="80" height="80" as="geometry" />
        </mxCell>
        <mxCell id="lAKQCbaZGqpKiCukRfTn-8" value="sim" style="text;html=1;align=center;verticalAlign=middle;resizable=0;points=[];autosize=1;strokeColor=none;fillColor=none;fontSize=16;" parent="1" vertex="1">
          <mxGeometry x="-201.5" y="44.5" width="43" height="31" as="geometry" />
        </mxCell>
        <mxCell id="lAKQCbaZGqpKiCukRfTn-9" value="não" style="text;html=1;align=center;verticalAlign=middle;resizable=0;points=[];autosize=1;strokeColor=none;fillColor=none;fontSize=16;" parent="1" vertex="1">
          <mxGeometry x="-320" y="144" width="45" height="31" as="geometry" />
        </mxCell>
        <mxCell id="lAKQCbaZGqpKiCukRfTn-17" style="edgeStyle=none;curved=1;rounded=0;orthogonalLoop=1;jettySize=auto;html=1;fontSize=12;startSize=8;endSize=8;" parent="1" source="lAKQCbaZGqpKiCukRfTn-10" target="lAKQCbaZGqpKiCukRfTn-16" edge="1">
          <mxGeometry relative="1" as="geometry" />
        </mxCell>
        <mxCell id="lAKQCbaZGqpKiCukRfTn-10" value="cálculo salário base = horas*valor da hora" style="rounded=0;whiteSpace=wrap;html=1;" parent="1" vertex="1">
          <mxGeometry x="-515" y="359" width="120" height="60" as="geometry" />
        </mxCell>
        <mxCell id="lAKQCbaZGqpKiCukRfTn-12" style="edgeStyle=none;curved=1;rounded=0;orthogonalLoop=1;jettySize=auto;html=1;entryX=0.5;entryY=0;entryDx=0;entryDy=0;fontSize=12;startSize=8;endSize=8;" parent="1" source="lAKQCbaZGqpKiCukRfTn-11" target="lAKQCbaZGqpKiCukRfTn-10" edge="1">
          <mxGeometry relative="1" as="geometry">
            <Array as="points">
              <mxPoint x="-466" y="275" />
            </Array>
          </mxGeometry>
        </mxCell>
        <mxCell id="lAKQCbaZGqpKiCukRfTn-14" style="edgeStyle=none;curved=1;rounded=0;orthogonalLoop=1;jettySize=auto;html=1;entryX=0.5;entryY=0;entryDx=0;entryDy=0;fontSize=12;startSize=8;endSize=8;" parent="1" source="lAKQCbaZGqpKiCukRfTn-11" target="lAKQCbaZGqpKiCukRfTn-13" edge="1">
          <mxGeometry relative="1" as="geometry">
            <Array as="points">
              <mxPoint x="-174" y="276" />
            </Array>
          </mxGeometry>
        </mxCell>
        <mxCell id="lAKQCbaZGqpKiCukRfTn-11" value="definição de departa." style="rhombus;whiteSpace=wrap;html=1;" parent="1" vertex="1">
          <mxGeometry x="-361" y="217" width="80" height="80" as="geometry" />
        </mxCell>
        <mxCell id="lAKQCbaZGqpKiCukRfTn-18" style="edgeStyle=none;curved=1;rounded=0;orthogonalLoop=1;jettySize=auto;html=1;fontSize=12;startSize=8;endSize=8;" parent="1" source="lAKQCbaZGqpKiCukRfTn-13" target="lAKQCbaZGqpKiCukRfTn-16" edge="1">
          <mxGeometry relative="1" as="geometry" />
        </mxCell>
        <mxCell id="lAKQCbaZGqpKiCukRfTn-13" value="cálculo salário base = horas*valor da hora" style="rounded=0;whiteSpace=wrap;html=1;" parent="1" vertex="1">
          <mxGeometry x="-240" y="362" width="120" height="60" as="geometry" />
        </mxCell>
        <mxCell id="lAKQCbaZGqpKiCukRfTn-16" value="Arnazena em outro vetor" style="ellipse;whiteSpace=wrap;html=1;" parent="1" vertex="1">
          <mxGeometry x="-381" y="477" width="120" height="80" as="geometry" />
        </mxCell>
        <mxCell id="mKKfAqHW9Lcpp3ZH1Yp7-3" value="" style="rounded=0;whiteSpace=wrap;html=1;" vertex="1" parent="1">
          <mxGeometry x="-80" y="-182" width="483" height="757" as="geometry" />
        </mxCell>
        <mxCell id="mKKfAqHW9Lcpp3ZH1Yp7-4" value="" style="rounded=0;whiteSpace=wrap;html=1;" vertex="1" parent="1">
          <mxGeometry x="-58" y="-162" width="433" height="60" as="geometry" />
        </mxCell>
        <mxCell id="mKKfAqHW9Lcpp3ZH1Yp7-5" value="" style="endArrow=none;html=1;rounded=0;entryX=0.25;entryY=0;entryDx=0;entryDy=0;exitX=0.25;exitY=1;exitDx=0;exitDy=0;" edge="1" parent="1" source="mKKfAqHW9Lcpp3ZH1Yp7-4" target="mKKfAqHW9Lcpp3ZH1Yp7-4">
          <mxGeometry width="50" height="50" relative="1" as="geometry">
            <mxPoint x="-23" y="-113" as="sourcePoint" />
            <mxPoint x="27" y="-163" as="targetPoint" />
          </mxGeometry>
        </mxCell>
        <mxCell id="mKKfAqHW9Lcpp3ZH1Yp7-6" value="" style="endArrow=none;html=1;rounded=0;entryX=0.25;entryY=0;entryDx=0;entryDy=0;exitX=0.25;exitY=1;exitDx=0;exitDy=0;" edge="1" parent="1">
          <mxGeometry width="50" height="50" relative="1" as="geometry">
            <mxPoint x="158.16" y="-102" as="sourcePoint" />
            <mxPoint x="158.16" y="-162" as="targetPoint" />
          </mxGeometry>
        </mxCell>
        <mxCell id="mKKfAqHW9Lcpp3ZH1Yp7-7" value="" style="endArrow=none;html=1;rounded=0;entryX=0.25;entryY=0;entryDx=0;entryDy=0;exitX=0.25;exitY=1;exitDx=0;exitDy=0;" edge="1" parent="1">
          <mxGeometry width="50" height="50" relative="1" as="geometry">
            <mxPoint x="259" y="-102" as="sourcePoint" />
            <mxPoint x="259" y="-162" as="targetPoint" />
          </mxGeometry>
        </mxCell>
        <mxCell id="mKKfAqHW9Lcpp3ZH1Yp7-8" value="João" style="text;html=1;align=center;verticalAlign=middle;whiteSpace=wrap;rounded=0;" vertex="1" parent="1">
          <mxGeometry x="-30" y="-166" width="60" height="30" as="geometry" />
        </mxCell>
        <mxCell id="mKKfAqHW9Lcpp3ZH1Yp7-10" value="2" style="text;html=1;align=center;verticalAlign=middle;whiteSpace=wrap;rounded=0;" vertex="1" parent="1">
          <mxGeometry x="-30" y="-151" width="60" height="30" as="geometry" />
        </mxCell>
        <mxCell id="mKKfAqHW9Lcpp3ZH1Yp7-11" value="23h&lt;div&gt;&lt;br&gt;&lt;/div&gt;" style="text;html=1;align=center;verticalAlign=middle;whiteSpace=wrap;rounded=0;" vertex="1" parent="1">
          <mxGeometry x="-30" y="-132" width="60" height="30" as="geometry" />
        </mxCell>
        <mxCell id="mKKfAqHW9Lcpp3ZH1Yp7-12" value="Marcos&lt;div&gt;2&lt;/div&gt;&lt;div&gt;45h&lt;/div&gt;" style="text;html=1;align=center;verticalAlign=middle;whiteSpace=wrap;rounded=0;" vertex="1" parent="1">
          <mxGeometry x="78" y="-155" width="60" height="30" as="geometry" />
        </mxCell>
        <mxCell id="mKKfAqHW9Lcpp3ZH1Yp7-13" value="Lavínia&lt;div&gt;1&lt;/div&gt;&lt;div&gt;67h&lt;/div&gt;" style="text;html=1;align=center;verticalAlign=middle;whiteSpace=wrap;rounded=0;" vertex="1" parent="1">
          <mxGeometry x="178" y="-155" width="60" height="30" as="geometry" />
        </mxCell>
        <mxCell id="mKKfAqHW9Lcpp3ZH1Yp7-14" value="Vânia&lt;div&gt;1&lt;/div&gt;&lt;div&gt;42h&lt;/div&gt;" style="text;html=1;align=center;verticalAlign=middle;whiteSpace=wrap;rounded=0;" vertex="1" parent="1">
          <mxGeometry x="290" y="-155" width="60" height="30" as="geometry" />
        </mxCell>
        <mxCell id="mKKfAqHW9Lcpp3ZH1Yp7-27" style="edgeStyle=orthogonalEdgeStyle;rounded=0;orthogonalLoop=1;jettySize=auto;html=1;" edge="1" parent="1" source="mKKfAqHW9Lcpp3ZH1Yp7-15" target="mKKfAqHW9Lcpp3ZH1Yp7-26">
          <mxGeometry relative="1" as="geometry" />
        </mxCell>
        <mxCell id="mKKfAqHW9Lcpp3ZH1Yp7-15" value="depto" style="ellipse;whiteSpace=wrap;html=1;aspect=fixed;" vertex="1" parent="1">
          <mxGeometry x="138" y="-29" width="46" height="46" as="geometry" />
        </mxCell>
        <mxCell id="mKKfAqHW9Lcpp3ZH1Yp7-20" value="" style="curved=1;endArrow=classic;html=1;rounded=0;exitX=0.5;exitY=0;exitDx=0;exitDy=0;entryX=0.5;entryY=1;entryDx=0;entryDy=0;" edge="1" parent="1" source="mKKfAqHW9Lcpp3ZH1Yp7-15" target="mKKfAqHW9Lcpp3ZH1Yp7-11">
          <mxGeometry width="50" height="50" relative="1" as="geometry">
            <mxPoint x="100" y="-38" as="sourcePoint" />
            <mxPoint x="150" y="-88" as="targetPoint" />
            <Array as="points">
              <mxPoint x="150" y="-38" />
              <mxPoint x="47" y="-51" />
            </Array>
          </mxGeometry>
        </mxCell>
        <mxCell id="mKKfAqHW9Lcpp3ZH1Yp7-22" value="" style="curved=1;endArrow=classic;html=1;rounded=0;entryX=0.382;entryY=0.968;entryDx=0;entryDy=0;entryPerimeter=0;" edge="1" parent="1" target="mKKfAqHW9Lcpp3ZH1Yp7-4">
          <mxGeometry width="50" height="50" relative="1" as="geometry">
            <mxPoint x="162" y="-31" as="sourcePoint" />
            <mxPoint x="10" y="-92" as="targetPoint" />
            <Array as="points">
              <mxPoint x="160" y="-28" />
              <mxPoint x="139" y="-60" />
              <mxPoint x="99" y="-65" />
              <mxPoint x="113" y="-76" />
              <mxPoint x="104" y="-89" />
            </Array>
          </mxGeometry>
        </mxCell>
        <mxCell id="mKKfAqHW9Lcpp3ZH1Yp7-24" value="" style="curved=1;endArrow=classic;html=1;rounded=0;entryX=0.613;entryY=1.003;entryDx=0;entryDy=0;entryPerimeter=0;" edge="1" parent="1" target="mKKfAqHW9Lcpp3ZH1Yp7-4">
          <mxGeometry width="50" height="50" relative="1" as="geometry">
            <mxPoint x="159" y="-30" as="sourcePoint" />
            <mxPoint x="243" y="-85" as="targetPoint" />
            <Array as="points">
              <mxPoint x="243" y="-35" />
              <mxPoint x="193" y="-85" />
            </Array>
          </mxGeometry>
        </mxCell>
        <mxCell id="mKKfAqHW9Lcpp3ZH1Yp7-25" value="" style="curved=1;endArrow=classic;html=1;rounded=0;entryX=0.878;entryY=1.003;entryDx=0;entryDy=0;entryPerimeter=0;" edge="1" parent="1" target="mKKfAqHW9Lcpp3ZH1Yp7-4">
          <mxGeometry width="50" height="50" relative="1" as="geometry">
            <mxPoint x="164" y="-31" as="sourcePoint" />
            <mxPoint x="214" y="-81" as="targetPoint" />
            <Array as="points">
              <mxPoint x="214" y="-31" />
              <mxPoint x="299" y="-38" />
            </Array>
          </mxGeometry>
        </mxCell>
        <mxCell id="mKKfAqHW9Lcpp3ZH1Yp7-30" style="edgeStyle=orthogonalEdgeStyle;rounded=0;orthogonalLoop=1;jettySize=auto;html=1;entryX=0.5;entryY=0;entryDx=0;entryDy=0;" edge="1" parent="1" source="mKKfAqHW9Lcpp3ZH1Yp7-26" target="mKKfAqHW9Lcpp3ZH1Yp7-29">
          <mxGeometry relative="1" as="geometry" />
        </mxCell>
        <mxCell id="mKKfAqHW9Lcpp3ZH1Yp7-26" value="conversor = int" style="rounded=0;whiteSpace=wrap;html=1;" vertex="1" parent="1">
          <mxGeometry x="101.5" y="86" width="120" height="60" as="geometry" />
        </mxCell>
        <mxCell id="mKKfAqHW9Lcpp3ZH1Yp7-29" value="Calcular salário base" style="rounded=0;whiteSpace=wrap;html=1;" vertex="1" parent="1">
          <mxGeometry x="101" y="217" width="120" height="60" as="geometry" />
        </mxCell>
        <mxCell id="mKKfAqHW9Lcpp3ZH1Yp7-31" value="" style="rounded=0;whiteSpace=wrap;html=1;" vertex="1" parent="1">
          <mxGeometry x="402.5" y="-182" width="483" height="757" as="geometry" />
        </mxCell>
        <mxCell id="mKKfAqHW9Lcpp3ZH1Yp7-32" value="" style="ellipse;whiteSpace=wrap;html=1;aspect=fixed;" vertex="1" parent="1">
          <mxGeometry x="605" y="-117" width="78" height="78" as="geometry" />
        </mxCell>
        <mxCell id="mKKfAqHW9Lcpp3ZH1Yp7-37" style="edgeStyle=orthogonalEdgeStyle;rounded=0;orthogonalLoop=1;jettySize=auto;html=1;" edge="1" parent="1" source="mKKfAqHW9Lcpp3ZH1Yp7-33" target="mKKfAqHW9Lcpp3ZH1Yp7-36">
          <mxGeometry relative="1" as="geometry" />
        </mxCell>
        <mxCell id="mKKfAqHW9Lcpp3ZH1Yp7-33" value="&lt;span style=&quot;white-space: pre;&quot;&gt;&#x9;&lt;/span&gt;Calcular salario base&lt;div&gt;&lt;br&gt;&lt;/div&gt;" style="rounded=0;whiteSpace=wrap;html=1;" vertex="1" parent="1">
          <mxGeometry x="731" y="19" width="120" height="60" as="geometry" />
        </mxCell>
        <mxCell id="mKKfAqHW9Lcpp3ZH1Yp7-34" value="" style="curved=1;endArrow=classic;html=1;rounded=0;entryX=0;entryY=0.5;entryDx=0;entryDy=0;exitX=0.5;exitY=1;exitDx=0;exitDy=0;" edge="1" parent="1" source="mKKfAqHW9Lcpp3ZH1Yp7-32" target="mKKfAqHW9Lcpp3ZH1Yp7-33">
          <mxGeometry width="50" height="50" relative="1" as="geometry">
            <mxPoint x="631" y="48" as="sourcePoint" />
            <mxPoint x="681" y="-2" as="targetPoint" />
            <Array as="points">
              <mxPoint x="681" y="48" />
              <mxPoint x="684" y="-27" />
            </Array>
          </mxGeometry>
        </mxCell>
        <mxCell id="mKKfAqHW9Lcpp3ZH1Yp7-41" style="edgeStyle=orthogonalEdgeStyle;rounded=0;orthogonalLoop=1;jettySize=auto;html=1;" edge="1" parent="1" source="mKKfAqHW9Lcpp3ZH1Yp7-36" target="mKKfAqHW9Lcpp3ZH1Yp7-40">
          <mxGeometry relative="1" as="geometry" />
        </mxCell>
        <mxCell id="mKKfAqHW9Lcpp3ZH1Yp7-42" style="edgeStyle=orthogonalEdgeStyle;rounded=0;orthogonalLoop=1;jettySize=auto;html=1;" edge="1" parent="1" source="mKKfAqHW9Lcpp3ZH1Yp7-36" target="mKKfAqHW9Lcpp3ZH1Yp7-39">
          <mxGeometry relative="1" as="geometry" />
        </mxCell>
        <mxCell id="mKKfAqHW9Lcpp3ZH1Yp7-36" value="depto" style="rhombus;whiteSpace=wrap;html=1;" vertex="1" parent="1">
          <mxGeometry x="751" y="128" width="80" height="80" as="geometry" />
        </mxCell>
        <mxCell id="mKKfAqHW9Lcpp3ZH1Yp7-54" style="edgeStyle=orthogonalEdgeStyle;rounded=0;orthogonalLoop=1;jettySize=auto;html=1;" edge="1" parent="1" source="mKKfAqHW9Lcpp3ZH1Yp7-39" target="mKKfAqHW9Lcpp3ZH1Yp7-53">
          <mxGeometry relative="1" as="geometry" />
        </mxCell>
        <mxCell id="mKKfAqHW9Lcpp3ZH1Yp7-39" value="22*horas trabalhadas" style="rounded=0;whiteSpace=wrap;html=1;" vertex="1" parent="1">
          <mxGeometry x="731" y="257" width="120" height="60" as="geometry" />
        </mxCell>
        <mxCell id="mKKfAqHW9Lcpp3ZH1Yp7-51" style="edgeStyle=orthogonalEdgeStyle;rounded=0;orthogonalLoop=1;jettySize=auto;html=1;entryX=0.5;entryY=0;entryDx=0;entryDy=0;" edge="1" parent="1" source="mKKfAqHW9Lcpp3ZH1Yp7-40" target="mKKfAqHW9Lcpp3ZH1Yp7-50">
          <mxGeometry relative="1" as="geometry" />
        </mxCell>
        <mxCell id="mKKfAqHW9Lcpp3ZH1Yp7-40" value="12*horas trabalhadas" style="rounded=0;whiteSpace=wrap;html=1;" vertex="1" parent="1">
          <mxGeometry x="485" y="254" width="120" height="60" as="geometry" />
        </mxCell>
        <mxCell id="mKKfAqHW9Lcpp3ZH1Yp7-43" value="depto: 1" style="text;html=1;align=center;verticalAlign=middle;whiteSpace=wrap;rounded=0;" vertex="1" parent="1">
          <mxGeometry x="614.5" y="144" width="60" height="30" as="geometry" />
        </mxCell>
        <mxCell id="mKKfAqHW9Lcpp3ZH1Yp7-44" value="depto: 2" style="text;html=1;align=center;verticalAlign=middle;whiteSpace=wrap;rounded=0;" vertex="1" parent="1">
          <mxGeometry x="796" y="213" width="60" height="30" as="geometry" />
        </mxCell>
        <mxCell id="mKKfAqHW9Lcpp3ZH1Yp7-46" value="retorna vator" style="shape=parallelogram;perimeter=parallelogramPerimeter;whiteSpace=wrap;html=1;fixedSize=1;" vertex="1" parent="1">
          <mxGeometry x="485" y="477" width="120" height="60" as="geometry" />
        </mxCell>
        <mxCell id="mKKfAqHW9Lcpp3ZH1Yp7-49" value="retorna vator" style="shape=parallelogram;perimeter=parallelogramPerimeter;whiteSpace=wrap;html=1;fixedSize=1;" vertex="1" parent="1">
          <mxGeometry x="731" y="461" width="120" height="60" as="geometry" />
        </mxCell>
        <mxCell id="mKKfAqHW9Lcpp3ZH1Yp7-52" style="edgeStyle=orthogonalEdgeStyle;rounded=0;orthogonalLoop=1;jettySize=auto;html=1;entryX=0.5;entryY=0;entryDx=0;entryDy=0;" edge="1" parent="1" source="mKKfAqHW9Lcpp3ZH1Yp7-50" target="mKKfAqHW9Lcpp3ZH1Yp7-46">
          <mxGeometry relative="1" as="geometry" />
        </mxCell>
        <mxCell id="mKKfAqHW9Lcpp3ZH1Yp7-50" value="insere no vetor" style="rounded=0;whiteSpace=wrap;html=1;" vertex="1" parent="1">
          <mxGeometry x="485" y="368" width="120" height="60" as="geometry" />
        </mxCell>
        <mxCell id="mKKfAqHW9Lcpp3ZH1Yp7-55" style="edgeStyle=orthogonalEdgeStyle;rounded=0;orthogonalLoop=1;jettySize=auto;html=1;" edge="1" parent="1" source="mKKfAqHW9Lcpp3ZH1Yp7-53" target="mKKfAqHW9Lcpp3ZH1Yp7-49">
          <mxGeometry relative="1" as="geometry" />
        </mxCell>
        <mxCell id="mKKfAqHW9Lcpp3ZH1Yp7-53" value="insere no vetor" style="rounded=0;whiteSpace=wrap;html=1;" vertex="1" parent="1">
          <mxGeometry x="731" y="359" width="120" height="60" as="geometry" />
        </mxCell>
        <mxCell id="mKKfAqHW9Lcpp3ZH1Yp7-56" value="Função: calcular salário base" style="text;html=1;align=center;verticalAlign=middle;whiteSpace=wrap;rounded=0;strokeWidth=1;fontSize=19;" vertex="1" parent="1">
          <mxGeometry x="507" y="-205" width="324" height="30" as="geometry" />
        </mxCell>
        <mxCell id="mKKfAqHW9Lcpp3ZH1Yp7-57" value="" style="rounded=0;whiteSpace=wrap;html=1;" vertex="1" parent="1">
          <mxGeometry x="892" y="-182" width="483" height="857" as="geometry" />
        </mxCell>
        <mxCell id="mKKfAqHW9Lcpp3ZH1Yp7-58" value="" style="rounded=0;whiteSpace=wrap;html=1;" vertex="1" parent="1">
          <mxGeometry x="916" y="-162" width="440" height="60" as="geometry" />
        </mxCell>
        <mxCell id="mKKfAqHW9Lcpp3ZH1Yp7-59" value="" style="endArrow=none;html=1;rounded=0;exitX=0.25;exitY=1;exitDx=0;exitDy=0;entryX=0.25;entryY=0;entryDx=0;entryDy=0;" edge="1" parent="1" source="mKKfAqHW9Lcpp3ZH1Yp7-58" target="mKKfAqHW9Lcpp3ZH1Yp7-58">
          <mxGeometry width="50" height="50" relative="1" as="geometry">
            <mxPoint x="935" y="-113" as="sourcePoint" />
            <mxPoint x="985" y="-163" as="targetPoint" />
          </mxGeometry>
        </mxCell>
        <mxCell id="mKKfAqHW9Lcpp3ZH1Yp7-60" value="" style="endArrow=none;html=1;rounded=0;exitX=0.25;exitY=1;exitDx=0;exitDy=0;entryX=0.25;entryY=0;entryDx=0;entryDy=0;" edge="1" parent="1">
          <mxGeometry width="50" height="50" relative="1" as="geometry">
            <mxPoint x="1142" y="-102" as="sourcePoint" />
            <mxPoint x="1142" y="-162" as="targetPoint" />
          </mxGeometry>
        </mxCell>
        <mxCell id="mKKfAqHW9Lcpp3ZH1Yp7-61" value="" style="endArrow=none;html=1;rounded=0;exitX=0.25;exitY=1;exitDx=0;exitDy=0;entryX=0.25;entryY=0;entryDx=0;entryDy=0;" edge="1" parent="1">
          <mxGeometry width="50" height="50" relative="1" as="geometry">
            <mxPoint x="1263" y="-102" as="sourcePoint" />
            <mxPoint x="1263" y="-162" as="targetPoint" />
          </mxGeometry>
        </mxCell>
        <mxCell id="mKKfAqHW9Lcpp3ZH1Yp7-62" value="4" style="text;html=1;align=center;verticalAlign=middle;whiteSpace=wrap;rounded=0;" vertex="1" parent="1">
          <mxGeometry x="1281" y="-147" width="60" height="30" as="geometry" />
        </mxCell>
        <mxCell id="mKKfAqHW9Lcpp3ZH1Yp7-63" value="1" style="text;html=1;align=center;verticalAlign=middle;whiteSpace=wrap;rounded=0;" vertex="1" parent="1">
          <mxGeometry x="937" y="-144" width="60" height="30" as="geometry" />
        </mxCell>
        <mxCell id="mKKfAqHW9Lcpp3ZH1Yp7-64" value="2" style="text;html=1;align=center;verticalAlign=middle;whiteSpace=wrap;rounded=0;" vertex="1" parent="1">
          <mxGeometry x="1058" y="-144" width="60" height="30" as="geometry" />
        </mxCell>
        <mxCell id="mKKfAqHW9Lcpp3ZH1Yp7-65" value="3" style="text;html=1;align=center;verticalAlign=middle;whiteSpace=wrap;rounded=0;" vertex="1" parent="1">
          <mxGeometry x="1180" y="-144" width="60" height="30" as="geometry" />
        </mxCell>
        <mxCell id="mKKfAqHW9Lcpp3ZH1Yp7-76" style="edgeStyle=orthogonalEdgeStyle;rounded=0;orthogonalLoop=1;jettySize=auto;html=1;entryX=0.5;entryY=0;entryDx=0;entryDy=0;" edge="1" parent="1" source="mKKfAqHW9Lcpp3ZH1Yp7-66" target="mKKfAqHW9Lcpp3ZH1Yp7-75">
          <mxGeometry relative="1" as="geometry" />
        </mxCell>
        <mxCell id="mKKfAqHW9Lcpp3ZH1Yp7-66" value="" style="ellipse;whiteSpace=wrap;html=1;aspect=fixed;" vertex="1" parent="1">
          <mxGeometry x="1112" y="-5" width="48" height="48" as="geometry" />
        </mxCell>
        <mxCell id="mKKfAqHW9Lcpp3ZH1Yp7-67" value="" style="curved=1;endArrow=classic;html=1;rounded=0;entryX=0.12;entryY=1.053;entryDx=0;entryDy=0;entryPerimeter=0;exitX=0.5;exitY=0;exitDx=0;exitDy=0;" edge="1" parent="1" source="mKKfAqHW9Lcpp3ZH1Yp7-66" target="mKKfAqHW9Lcpp3ZH1Yp7-58">
          <mxGeometry width="50" height="50" relative="1" as="geometry">
            <mxPoint x="1032" y="-7" as="sourcePoint" />
            <mxPoint x="1082" y="-57" as="targetPoint" />
            <Array as="points">
              <mxPoint x="1082" y="-7" />
              <mxPoint x="1032" y="-57" />
            </Array>
          </mxGeometry>
        </mxCell>
        <mxCell id="mKKfAqHW9Lcpp3ZH1Yp7-68" value="" style="curved=1;endArrow=classic;html=1;rounded=0;entryX=0.392;entryY=0.983;entryDx=0;entryDy=0;entryPerimeter=0;" edge="1" parent="1" target="mKKfAqHW9Lcpp3ZH1Yp7-58">
          <mxGeometry width="50" height="50" relative="1" as="geometry">
            <mxPoint x="1131" y="-6" as="sourcePoint" />
            <mxPoint x="1118" y="-83" as="targetPoint" />
            <Array as="points">
              <mxPoint x="1118" y="-33" />
              <mxPoint x="1068" y="-83" />
            </Array>
          </mxGeometry>
        </mxCell>
        <mxCell id="mKKfAqHW9Lcpp3ZH1Yp7-69" value="" style="curved=1;endArrow=classic;html=1;rounded=0;entryX=0.658;entryY=0.969;entryDx=0;entryDy=0;entryPerimeter=0;" edge="1" parent="1" target="mKKfAqHW9Lcpp3ZH1Yp7-58">
          <mxGeometry width="50" height="50" relative="1" as="geometry">
            <mxPoint x="1133" y="-5" as="sourcePoint" />
            <mxPoint x="1189" y="-91" as="targetPoint" />
            <Array as="points">
              <mxPoint x="1219" y="-21" />
              <mxPoint x="1169" y="-71" />
            </Array>
          </mxGeometry>
        </mxCell>
        <mxCell id="mKKfAqHW9Lcpp3ZH1Yp7-70" value="" style="curved=1;endArrow=classic;html=1;rounded=0;entryX=0.658;entryY=0.969;entryDx=0;entryDy=0;entryPerimeter=0;exitX=0.5;exitY=0;exitDx=0;exitDy=0;" edge="1" parent="1" source="mKKfAqHW9Lcpp3ZH1Yp7-66">
          <mxGeometry width="50" height="50" relative="1" as="geometry">
            <mxPoint x="1235" y="-3" as="sourcePoint" />
            <mxPoint x="1308" y="-102" as="targetPoint" />
            <Array as="points">
              <mxPoint x="1321" y="-19" />
              <mxPoint x="1271" y="-69" />
            </Array>
          </mxGeometry>
        </mxCell>
        <mxCell id="mKKfAqHW9Lcpp3ZH1Yp7-71" value="horas: 40" style="text;html=1;align=center;verticalAlign=middle;whiteSpace=wrap;rounded=0;" vertex="1" parent="1">
          <mxGeometry x="944" y="-132" width="60" height="30" as="geometry" />
        </mxCell>
        <mxCell id="mKKfAqHW9Lcpp3ZH1Yp7-72" value="horas: 23" style="text;html=1;align=center;verticalAlign=middle;whiteSpace=wrap;rounded=0;" vertex="1" parent="1">
          <mxGeometry x="1058" y="-132" width="60" height="30" as="geometry" />
        </mxCell>
        <mxCell id="mKKfAqHW9Lcpp3ZH1Yp7-73" value="horas: 34" style="text;html=1;align=center;verticalAlign=middle;whiteSpace=wrap;rounded=0;" vertex="1" parent="1">
          <mxGeometry x="1180" y="-132" width="60" height="30" as="geometry" />
        </mxCell>
        <mxCell id="mKKfAqHW9Lcpp3ZH1Yp7-74" value="horas: 46" style="text;html=1;align=center;verticalAlign=middle;whiteSpace=wrap;rounded=0;" vertex="1" parent="1">
          <mxGeometry x="1281" y="-132" width="60" height="30" as="geometry" />
        </mxCell>
        <mxCell id="mKKfAqHW9Lcpp3ZH1Yp7-79" style="edgeStyle=orthogonalEdgeStyle;rounded=0;orthogonalLoop=1;jettySize=auto;html=1;entryX=0.5;entryY=0;entryDx=0;entryDy=0;" edge="1" parent="1" source="mKKfAqHW9Lcpp3ZH1Yp7-75" target="mKKfAqHW9Lcpp3ZH1Yp7-78">
          <mxGeometry relative="1" as="geometry" />
        </mxCell>
        <mxCell id="mKKfAqHW9Lcpp3ZH1Yp7-90" style="edgeStyle=orthogonalEdgeStyle;rounded=0;orthogonalLoop=1;jettySize=auto;html=1;entryX=0.5;entryY=0;entryDx=0;entryDy=0;" edge="1" parent="1" source="mKKfAqHW9Lcpp3ZH1Yp7-75" target="mKKfAqHW9Lcpp3ZH1Yp7-83">
          <mxGeometry relative="1" as="geometry">
            <Array as="points">
              <mxPoint x="1255" y="126" />
              <mxPoint x="1255" y="570" />
            </Array>
          </mxGeometry>
        </mxCell>
        <mxCell id="mKKfAqHW9Lcpp3ZH1Yp7-75" value="horas &amp;gt; 40" style="rhombus;whiteSpace=wrap;html=1;" vertex="1" parent="1">
          <mxGeometry x="1096" y="86" width="80" height="80" as="geometry" />
        </mxCell>
        <mxCell id="mKKfAqHW9Lcpp3ZH1Yp7-82" style="edgeStyle=orthogonalEdgeStyle;rounded=0;orthogonalLoop=1;jettySize=auto;html=1;" edge="1" parent="1" source="mKKfAqHW9Lcpp3ZH1Yp7-78" target="mKKfAqHW9Lcpp3ZH1Yp7-81">
          <mxGeometry relative="1" as="geometry" />
        </mxCell>
        <mxCell id="mKKfAqHW9Lcpp3ZH1Yp7-78" value="fazer a diferença de horas a mais" style="rounded=0;whiteSpace=wrap;html=1;" vertex="1" parent="1">
          <mxGeometry x="951" y="170" width="120" height="60" as="geometry" />
        </mxCell>
        <mxCell id="mKKfAqHW9Lcpp3ZH1Yp7-80" value="sim" style="text;html=1;align=center;verticalAlign=middle;whiteSpace=wrap;rounded=0;" vertex="1" parent="1">
          <mxGeometry x="1025" y="105" width="60" height="30" as="geometry" />
        </mxCell>
        <mxCell id="mKKfAqHW9Lcpp3ZH1Yp7-87" style="edgeStyle=orthogonalEdgeStyle;rounded=0;orthogonalLoop=1;jettySize=auto;html=1;entryX=0.5;entryY=0;entryDx=0;entryDy=0;" edge="1" parent="1" source="mKKfAqHW9Lcpp3ZH1Yp7-81" target="mKKfAqHW9Lcpp3ZH1Yp7-84">
          <mxGeometry relative="1" as="geometry" />
        </mxCell>
        <mxCell id="mKKfAqHW9Lcpp3ZH1Yp7-81" value="resultado = 2*horas extras*horas de trabalho" style="rounded=0;whiteSpace=wrap;html=1;" vertex="1" parent="1">
          <mxGeometry x="951" y="284" width="120" height="60" as="geometry" />
        </mxCell>
        <mxCell id="mKKfAqHW9Lcpp3ZH1Yp7-83" value="" style="ellipse;whiteSpace=wrap;html=1;aspect=fixed;" vertex="1" parent="1">
          <mxGeometry x="1046" y="570" width="80" height="80" as="geometry" />
        </mxCell>
        <mxCell id="mKKfAqHW9Lcpp3ZH1Yp7-88" style="edgeStyle=orthogonalEdgeStyle;rounded=0;orthogonalLoop=1;jettySize=auto;html=1;" edge="1" parent="1" source="mKKfAqHW9Lcpp3ZH1Yp7-84" target="mKKfAqHW9Lcpp3ZH1Yp7-86">
          <mxGeometry relative="1" as="geometry" />
        </mxCell>
        <mxCell id="mKKfAqHW9Lcpp3ZH1Yp7-84" value="2*horas extras*horas de trabalho" style="rounded=0;whiteSpace=wrap;html=1;" vertex="1" parent="1">
          <mxGeometry x="954" y="372" width="120" height="60" as="geometry" />
        </mxCell>
        <mxCell id="mKKfAqHW9Lcpp3ZH1Yp7-89" style="edgeStyle=orthogonalEdgeStyle;rounded=0;orthogonalLoop=1;jettySize=auto;html=1;" edge="1" parent="1" source="mKKfAqHW9Lcpp3ZH1Yp7-86" target="mKKfAqHW9Lcpp3ZH1Yp7-83">
          <mxGeometry relative="1" as="geometry" />
        </mxCell>
        <mxCell id="mKKfAqHW9Lcpp3ZH1Yp7-86" value="colocar esse valor no vetor" style="rounded=0;whiteSpace=wrap;html=1;" vertex="1" parent="1">
          <mxGeometry x="957" y="465" width="120" height="60" as="geometry" />
        </mxCell>
        <mxCell id="mKKfAqHW9Lcpp3ZH1Yp7-91" value="não" style="text;html=1;align=center;verticalAlign=middle;whiteSpace=wrap;rounded=0;" vertex="1" parent="1">
          <mxGeometry x="1184" y="105" width="60" height="30" as="geometry" />
        </mxCell>
        <mxCell id="mKKfAqHW9Lcpp3ZH1Yp7-92" value="" style="rounded=0;whiteSpace=wrap;html=1;" vertex="1" parent="1">
          <mxGeometry x="1382" y="-241" width="483" height="857" as="geometry" />
        </mxCell>
        <mxCell id="mKKfAqHW9Lcpp3ZH1Yp7-95" value="" style="rounded=0;whiteSpace=wrap;html=1;" vertex="1" parent="1">
          <mxGeometry x="1388" y="-166" width="440" height="60" as="geometry" />
        </mxCell>
        <mxCell id="mKKfAqHW9Lcpp3ZH1Yp7-96" value="" style="endArrow=none;html=1;rounded=0;exitX=0.25;exitY=1;exitDx=0;exitDy=0;entryX=0.25;entryY=0;entryDx=0;entryDy=0;" edge="1" parent="1" source="mKKfAqHW9Lcpp3ZH1Yp7-95" target="mKKfAqHW9Lcpp3ZH1Yp7-95">
          <mxGeometry width="50" height="50" relative="1" as="geometry">
            <mxPoint x="1407" y="-117" as="sourcePoint" />
            <mxPoint x="1457" y="-167" as="targetPoint" />
          </mxGeometry>
        </mxCell>
        <mxCell id="mKKfAqHW9Lcpp3ZH1Yp7-97" value="" style="endArrow=none;html=1;rounded=0;exitX=0.25;exitY=1;exitDx=0;exitDy=0;entryX=0.25;entryY=0;entryDx=0;entryDy=0;" edge="1" parent="1">
          <mxGeometry width="50" height="50" relative="1" as="geometry">
            <mxPoint x="1614" y="-106" as="sourcePoint" />
            <mxPoint x="1614" y="-166" as="targetPoint" />
          </mxGeometry>
        </mxCell>
        <mxCell id="mKKfAqHW9Lcpp3ZH1Yp7-98" value="" style="endArrow=none;html=1;rounded=0;exitX=0.25;exitY=1;exitDx=0;exitDy=0;entryX=0.25;entryY=0;entryDx=0;entryDy=0;" edge="1" parent="1">
          <mxGeometry width="50" height="50" relative="1" as="geometry">
            <mxPoint x="1735" y="-106" as="sourcePoint" />
            <mxPoint x="1735" y="-166" as="targetPoint" />
          </mxGeometry>
        </mxCell>
        <mxCell id="mKKfAqHW9Lcpp3ZH1Yp7-99" value="4" style="text;html=1;align=center;verticalAlign=middle;whiteSpace=wrap;rounded=0;" vertex="1" parent="1">
          <mxGeometry x="1753" y="-151" width="60" height="30" as="geometry" />
        </mxCell>
        <mxCell id="mKKfAqHW9Lcpp3ZH1Yp7-100" value="1" style="text;html=1;align=center;verticalAlign=middle;whiteSpace=wrap;rounded=0;" vertex="1" parent="1">
          <mxGeometry x="1409" y="-148" width="60" height="30" as="geometry" />
        </mxCell>
        <mxCell id="mKKfAqHW9Lcpp3ZH1Yp7-101" value="2" style="text;html=1;align=center;verticalAlign=middle;whiteSpace=wrap;rounded=0;" vertex="1" parent="1">
          <mxGeometry x="1530" y="-148" width="60" height="30" as="geometry" />
        </mxCell>
        <mxCell id="mKKfAqHW9Lcpp3ZH1Yp7-102" value="3" style="text;html=1;align=center;verticalAlign=middle;whiteSpace=wrap;rounded=0;" vertex="1" parent="1">
          <mxGeometry x="1652" y="-148" width="60" height="30" as="geometry" />
        </mxCell>
        <mxCell id="mKKfAqHW9Lcpp3ZH1Yp7-103" value="horas: 40" style="text;html=1;align=center;verticalAlign=middle;whiteSpace=wrap;rounded=0;" vertex="1" parent="1">
          <mxGeometry x="1416" y="-136" width="60" height="30" as="geometry" />
        </mxCell>
        <mxCell id="mKKfAqHW9Lcpp3ZH1Yp7-104" value="horas: 23" style="text;html=1;align=center;verticalAlign=middle;whiteSpace=wrap;rounded=0;" vertex="1" parent="1">
          <mxGeometry x="1530" y="-136" width="60" height="30" as="geometry" />
        </mxCell>
        <mxCell id="mKKfAqHW9Lcpp3ZH1Yp7-105" value="horas: 34" style="text;html=1;align=center;verticalAlign=middle;whiteSpace=wrap;rounded=0;" vertex="1" parent="1">
          <mxGeometry x="1652" y="-136" width="60" height="30" as="geometry" />
        </mxCell>
        <mxCell id="mKKfAqHW9Lcpp3ZH1Yp7-106" value="horas: 46" style="text;html=1;align=center;verticalAlign=middle;whiteSpace=wrap;rounded=0;" vertex="1" parent="1">
          <mxGeometry x="1753" y="-136" width="60" height="30" as="geometry" />
        </mxCell>
        <mxCell id="mKKfAqHW9Lcpp3ZH1Yp7-107" value="Função: adicionar as horas extras" style="text;html=1;align=center;verticalAlign=middle;whiteSpace=wrap;rounded=0;strokeWidth=1;fontSize=19;" vertex="1" parent="1">
          <mxGeometry x="939" y="-210" width="324" height="30" as="geometry" />
        </mxCell>
        <mxCell id="mKKfAqHW9Lcpp3ZH1Yp7-108" value="Função: insalubridade" style="text;html=1;align=center;verticalAlign=middle;whiteSpace=wrap;rounded=0;strokeWidth=1;fontSize=19;" vertex="1" parent="1">
          <mxGeometry x="1459" y="-266" width="324" height="30" as="geometry" />
        </mxCell>
        <mxCell id="mKKfAqHW9Lcpp3ZH1Yp7-116" style="edgeStyle=orthogonalEdgeStyle;rounded=0;orthogonalLoop=1;jettySize=auto;html=1;entryX=0.5;entryY=0;entryDx=0;entryDy=0;" edge="1" parent="1" source="mKKfAqHW9Lcpp3ZH1Yp7-109" target="mKKfAqHW9Lcpp3ZH1Yp7-115">
          <mxGeometry relative="1" as="geometry" />
        </mxCell>
        <mxCell id="mKKfAqHW9Lcpp3ZH1Yp7-109" value="" style="ellipse;whiteSpace=wrap;html=1;aspect=fixed;" vertex="1" parent="1">
          <mxGeometry x="1587" y="9" width="48" height="48" as="geometry" />
        </mxCell>
        <mxCell id="mKKfAqHW9Lcpp3ZH1Yp7-111" value="" style="curved=1;endArrow=classic;html=1;rounded=0;entryX=0.5;entryY=1;entryDx=0;entryDy=0;exitX=0.5;exitY=0;exitDx=0;exitDy=0;" edge="1" parent="1" source="mKKfAqHW9Lcpp3ZH1Yp7-109" target="mKKfAqHW9Lcpp3ZH1Yp7-103">
          <mxGeometry width="50" height="50" relative="1" as="geometry">
            <mxPoint x="1476" y="-14" as="sourcePoint" />
            <mxPoint x="1526" y="-64" as="targetPoint" />
            <Array as="points">
              <mxPoint x="1526" y="-14" />
              <mxPoint x="1476" y="-64" />
            </Array>
          </mxGeometry>
        </mxCell>
        <mxCell id="mKKfAqHW9Lcpp3ZH1Yp7-112" value="" style="curved=1;endArrow=classic;html=1;rounded=0;entryX=0.5;entryY=1;entryDx=0;entryDy=0;exitX=0.5;exitY=0;exitDx=0;exitDy=0;" edge="1" parent="1" source="mKKfAqHW9Lcpp3ZH1Yp7-109">
          <mxGeometry width="50" height="50" relative="1" as="geometry">
            <mxPoint x="1712" y="9" as="sourcePoint" />
            <mxPoint x="1547" y="-106" as="targetPoint" />
            <Array as="points">
              <mxPoint x="1627" y="-14" />
              <mxPoint x="1577" y="-64" />
            </Array>
          </mxGeometry>
        </mxCell>
        <mxCell id="mKKfAqHW9Lcpp3ZH1Yp7-113" value="" style="curved=1;endArrow=classic;html=1;rounded=0;entryX=0.5;entryY=1;entryDx=0;entryDy=0;exitX=0.5;exitY=0;exitDx=0;exitDy=0;" edge="1" parent="1" source="mKKfAqHW9Lcpp3ZH1Yp7-109">
          <mxGeometry width="50" height="50" relative="1" as="geometry">
            <mxPoint x="1746" y="9" as="sourcePoint" />
            <mxPoint x="1682" y="-106" as="targetPoint" />
            <Array as="points">
              <mxPoint x="1690" y="-14" />
              <mxPoint x="1712" y="-64" />
            </Array>
          </mxGeometry>
        </mxCell>
        <mxCell id="mKKfAqHW9Lcpp3ZH1Yp7-114" value="" style="curved=1;endArrow=classic;html=1;rounded=0;entryX=0.5;entryY=1;entryDx=0;entryDy=0;" edge="1" parent="1">
          <mxGeometry width="50" height="50" relative="1" as="geometry">
            <mxPoint x="1613" y="9" as="sourcePoint" />
            <mxPoint x="1778" y="-106" as="targetPoint" />
            <Array as="points">
              <mxPoint x="1786" y="-14" />
              <mxPoint x="1808" y="-64" />
            </Array>
          </mxGeometry>
        </mxCell>
        <mxCell id="mKKfAqHW9Lcpp3ZH1Yp7-119" style="edgeStyle=orthogonalEdgeStyle;rounded=0;orthogonalLoop=1;jettySize=auto;html=1;entryX=0.5;entryY=0;entryDx=0;entryDy=0;" edge="1" parent="1" source="mKKfAqHW9Lcpp3ZH1Yp7-115" target="mKKfAqHW9Lcpp3ZH1Yp7-118">
          <mxGeometry relative="1" as="geometry" />
        </mxCell>
        <mxCell id="mKKfAqHW9Lcpp3ZH1Yp7-128" style="edgeStyle=orthogonalEdgeStyle;rounded=0;orthogonalLoop=1;jettySize=auto;html=1;entryX=0.5;entryY=0;entryDx=0;entryDy=0;" edge="1" parent="1" source="mKKfAqHW9Lcpp3ZH1Yp7-115" target="mKKfAqHW9Lcpp3ZH1Yp7-126">
          <mxGeometry relative="1" as="geometry">
            <Array as="points">
              <mxPoint x="1704" y="135" />
              <mxPoint x="1704" y="495" />
            </Array>
          </mxGeometry>
        </mxCell>
        <mxCell id="mKKfAqHW9Lcpp3ZH1Yp7-115" value="conversor == 2" style="rhombus;whiteSpace=wrap;html=1;" vertex="1" parent="1">
          <mxGeometry x="1572" y="95" width="80" height="80" as="geometry" />
        </mxCell>
        <mxCell id="mKKfAqHW9Lcpp3ZH1Yp7-121" style="edgeStyle=orthogonalEdgeStyle;rounded=0;orthogonalLoop=1;jettySize=auto;html=1;entryX=0.5;entryY=0;entryDx=0;entryDy=0;" edge="1" parent="1" source="mKKfAqHW9Lcpp3ZH1Yp7-118" target="mKKfAqHW9Lcpp3ZH1Yp7-120">
          <mxGeometry relative="1" as="geometry" />
        </mxCell>
        <mxCell id="mKKfAqHW9Lcpp3ZH1Yp7-118" value="resultado = salario base*0.15" style="rounded=0;whiteSpace=wrap;html=1;" vertex="1" parent="1">
          <mxGeometry x="1432" y="183" width="120" height="60" as="geometry" />
        </mxCell>
        <mxCell id="mKKfAqHW9Lcpp3ZH1Yp7-125" style="edgeStyle=orthogonalEdgeStyle;rounded=0;orthogonalLoop=1;jettySize=auto;html=1;entryX=0.5;entryY=0;entryDx=0;entryDy=0;" edge="1" parent="1" source="mKKfAqHW9Lcpp3ZH1Yp7-120" target="mKKfAqHW9Lcpp3ZH1Yp7-124">
          <mxGeometry relative="1" as="geometry" />
        </mxCell>
        <mxCell id="mKKfAqHW9Lcpp3ZH1Yp7-120" value="resultado + vetor com valor final (já com o acrescimo da hora extra)" style="rounded=0;whiteSpace=wrap;html=1;" vertex="1" parent="1">
          <mxGeometry x="1432" y="284" width="120" height="60" as="geometry" />
        </mxCell>
        <mxCell id="mKKfAqHW9Lcpp3ZH1Yp7-127" style="edgeStyle=orthogonalEdgeStyle;rounded=0;orthogonalLoop=1;jettySize=auto;html=1;entryX=0.5;entryY=0;entryDx=0;entryDy=0;" edge="1" parent="1" source="mKKfAqHW9Lcpp3ZH1Yp7-124" target="mKKfAqHW9Lcpp3ZH1Yp7-126">
          <mxGeometry relative="1" as="geometry" />
        </mxCell>
        <mxCell id="mKKfAqHW9Lcpp3ZH1Yp7-124" value="adicionar no vetor" style="rounded=0;whiteSpace=wrap;html=1;" vertex="1" parent="1">
          <mxGeometry x="1432" y="388" width="120" height="60" as="geometry" />
        </mxCell>
        <mxCell id="mKKfAqHW9Lcpp3ZH1Yp7-126" value="" style="ellipse;whiteSpace=wrap;html=1;aspect=fixed;" vertex="1" parent="1">
          <mxGeometry x="1584" y="495" width="80" height="80" as="geometry" />
        </mxCell>
        <mxCell id="mKKfAqHW9Lcpp3ZH1Yp7-129" value="sim" style="text;html=1;align=center;verticalAlign=middle;whiteSpace=wrap;rounded=0;" vertex="1" parent="1">
          <mxGeometry x="1504" y="111" width="60" height="30" as="geometry" />
        </mxCell>
        <mxCell id="mKKfAqHW9Lcpp3ZH1Yp7-130" value="não" style="text;html=1;align=center;verticalAlign=middle;whiteSpace=wrap;rounded=0;" vertex="1" parent="1">
          <mxGeometry x="1649" y="114" width="60" height="30" as="geometry" />
        </mxCell>
        <mxCell id="mKKfAqHW9Lcpp3ZH1Yp7-131" value="" style="rounded=0;whiteSpace=wrap;html=1;" vertex="1" parent="1">
          <mxGeometry x="1861" y="-243" width="483" height="857" as="geometry" />
        </mxCell>
        <mxCell id="mKKfAqHW9Lcpp3ZH1Yp7-132" value="" style="rounded=0;whiteSpace=wrap;html=1;" vertex="1" parent="1">
          <mxGeometry x="1895" y="-232" width="440" height="60" as="geometry" />
        </mxCell>
        <mxCell id="mKKfAqHW9Lcpp3ZH1Yp7-133" value="" style="endArrow=none;html=1;rounded=0;exitX=0.25;exitY=1;exitDx=0;exitDy=0;entryX=0.25;entryY=0;entryDx=0;entryDy=0;" edge="1" parent="1" source="mKKfAqHW9Lcpp3ZH1Yp7-132" target="mKKfAqHW9Lcpp3ZH1Yp7-132">
          <mxGeometry width="50" height="50" relative="1" as="geometry">
            <mxPoint x="1914" y="-183" as="sourcePoint" />
            <mxPoint x="1964" y="-233" as="targetPoint" />
          </mxGeometry>
        </mxCell>
        <mxCell id="mKKfAqHW9Lcpp3ZH1Yp7-134" value="" style="endArrow=none;html=1;rounded=0;exitX=0.25;exitY=1;exitDx=0;exitDy=0;entryX=0.25;entryY=0;entryDx=0;entryDy=0;" edge="1" parent="1">
          <mxGeometry width="50" height="50" relative="1" as="geometry">
            <mxPoint x="2121" y="-172" as="sourcePoint" />
            <mxPoint x="2121" y="-232" as="targetPoint" />
          </mxGeometry>
        </mxCell>
        <mxCell id="mKKfAqHW9Lcpp3ZH1Yp7-135" value="" style="endArrow=none;html=1;rounded=0;exitX=0.25;exitY=1;exitDx=0;exitDy=0;entryX=0.25;entryY=0;entryDx=0;entryDy=0;" edge="1" parent="1">
          <mxGeometry width="50" height="50" relative="1" as="geometry">
            <mxPoint x="2242" y="-172" as="sourcePoint" />
            <mxPoint x="2242" y="-232" as="targetPoint" />
          </mxGeometry>
        </mxCell>
        <mxCell id="mKKfAqHW9Lcpp3ZH1Yp7-136" value="4" style="text;html=1;align=center;verticalAlign=middle;whiteSpace=wrap;rounded=0;" vertex="1" parent="1">
          <mxGeometry x="2260" y="-217" width="60" height="30" as="geometry" />
        </mxCell>
        <mxCell id="mKKfAqHW9Lcpp3ZH1Yp7-137" value="1" style="text;html=1;align=center;verticalAlign=middle;whiteSpace=wrap;rounded=0;" vertex="1" parent="1">
          <mxGeometry x="1916" y="-214" width="60" height="30" as="geometry" />
        </mxCell>
        <mxCell id="mKKfAqHW9Lcpp3ZH1Yp7-138" value="2" style="text;html=1;align=center;verticalAlign=middle;whiteSpace=wrap;rounded=0;" vertex="1" parent="1">
          <mxGeometry x="2037" y="-214" width="60" height="30" as="geometry" />
        </mxCell>
        <mxCell id="mKKfAqHW9Lcpp3ZH1Yp7-139" value="3" style="text;html=1;align=center;verticalAlign=middle;whiteSpace=wrap;rounded=0;" vertex="1" parent="1">
          <mxGeometry x="2159" y="-214" width="60" height="30" as="geometry" />
        </mxCell>
        <mxCell id="mKKfAqHW9Lcpp3ZH1Yp7-140" value="horas: 40" style="text;html=1;align=center;verticalAlign=middle;whiteSpace=wrap;rounded=0;" vertex="1" parent="1">
          <mxGeometry x="1923" y="-202" width="60" height="30" as="geometry" />
        </mxCell>
        <mxCell id="mKKfAqHW9Lcpp3ZH1Yp7-141" value="horas: 23" style="text;html=1;align=center;verticalAlign=middle;whiteSpace=wrap;rounded=0;" vertex="1" parent="1">
          <mxGeometry x="2037" y="-202" width="60" height="30" as="geometry" />
        </mxCell>
        <mxCell id="mKKfAqHW9Lcpp3ZH1Yp7-142" value="horas: 34" style="text;html=1;align=center;verticalAlign=middle;whiteSpace=wrap;rounded=0;" vertex="1" parent="1">
          <mxGeometry x="2159" y="-202" width="60" height="30" as="geometry" />
        </mxCell>
        <mxCell id="mKKfAqHW9Lcpp3ZH1Yp7-143" value="horas: 46" style="text;html=1;align=center;verticalAlign=middle;whiteSpace=wrap;rounded=0;" vertex="1" parent="1">
          <mxGeometry x="2260" y="-202" width="60" height="30" as="geometry" />
        </mxCell>
        <mxCell id="mKKfAqHW9Lcpp3ZH1Yp7-144" value="Função: bonificação" style="text;html=1;align=center;verticalAlign=middle;whiteSpace=wrap;rounded=0;strokeWidth=1;fontSize=19;" vertex="1" parent="1">
          <mxGeometry x="1918" y="-280" width="324" height="30" as="geometry" />
        </mxCell>
        <mxCell id="mKKfAqHW9Lcpp3ZH1Yp7-157" style="edgeStyle=orthogonalEdgeStyle;rounded=0;orthogonalLoop=1;jettySize=auto;html=1;" edge="1" parent="1" source="mKKfAqHW9Lcpp3ZH1Yp7-146" target="mKKfAqHW9Lcpp3ZH1Yp7-156">
          <mxGeometry relative="1" as="geometry" />
        </mxCell>
        <mxCell id="mKKfAqHW9Lcpp3ZH1Yp7-146" value="" style="ellipse;whiteSpace=wrap;html=1;aspect=fixed;" vertex="1" parent="1">
          <mxGeometry x="2086" y="-87" width="48" height="48" as="geometry" />
        </mxCell>
        <mxCell id="mKKfAqHW9Lcpp3ZH1Yp7-148" value="" style="curved=1;endArrow=classic;html=1;rounded=0;entryX=0.5;entryY=1;entryDx=0;entryDy=0;exitX=0.5;exitY=0;exitDx=0;exitDy=0;" edge="1" parent="1" source="mKKfAqHW9Lcpp3ZH1Yp7-146">
          <mxGeometry width="50" height="50" relative="1" as="geometry">
            <mxPoint x="2111" y="-57" as="sourcePoint" />
            <mxPoint x="1946" y="-172" as="targetPoint" />
            <Array as="points">
              <mxPoint x="2026" y="-80" />
              <mxPoint x="1976" y="-130" />
            </Array>
          </mxGeometry>
        </mxCell>
        <mxCell id="mKKfAqHW9Lcpp3ZH1Yp7-149" value="" style="curved=1;endArrow=classic;html=1;rounded=0;entryX=0.5;entryY=1;entryDx=0;entryDy=0;exitX=0.5;exitY=0;exitDx=0;exitDy=0;" edge="1" parent="1" source="mKKfAqHW9Lcpp3ZH1Yp7-146">
          <mxGeometry width="50" height="50" relative="1" as="geometry">
            <mxPoint x="2222" y="-90" as="sourcePoint" />
            <mxPoint x="2058" y="-175" as="targetPoint" />
            <Array as="points">
              <mxPoint x="2138" y="-83" />
              <mxPoint x="2088" y="-133" />
            </Array>
          </mxGeometry>
        </mxCell>
        <mxCell id="mKKfAqHW9Lcpp3ZH1Yp7-152" value="" style="curved=1;endArrow=classic;html=1;rounded=0;entryX=0.5;entryY=1;entryDx=0;entryDy=0;exitX=0.5;exitY=0;exitDx=0;exitDy=0;" edge="1" parent="1" source="mKKfAqHW9Lcpp3ZH1Yp7-146">
          <mxGeometry width="50" height="50" relative="1" as="geometry">
            <mxPoint x="2235" y="-84" as="sourcePoint" />
            <mxPoint x="2183" y="-172" as="targetPoint" />
            <Array as="points">
              <mxPoint x="2263" y="-80" />
              <mxPoint x="2213" y="-130" />
            </Array>
          </mxGeometry>
        </mxCell>
        <mxCell id="mKKfAqHW9Lcpp3ZH1Yp7-153" value="" style="curved=1;endArrow=classic;html=1;rounded=0;entryX=0.5;entryY=1;entryDx=0;entryDy=0;exitX=0.5;exitY=0;exitDx=0;exitDy=0;" edge="1" parent="1" source="mKKfAqHW9Lcpp3ZH1Yp7-146">
          <mxGeometry width="50" height="50" relative="1" as="geometry">
            <mxPoint x="2213.5" y="-87" as="sourcePoint" />
            <mxPoint x="2286.5" y="-172" as="targetPoint" />
            <Array as="points">
              <mxPoint x="2366.5" y="-80" />
              <mxPoint x="2316.5" y="-130" />
            </Array>
          </mxGeometry>
        </mxCell>
        <mxCell id="mKKfAqHW9Lcpp3ZH1Yp7-159" style="edgeStyle=orthogonalEdgeStyle;rounded=0;orthogonalLoop=1;jettySize=auto;html=1;entryX=0.5;entryY=0;entryDx=0;entryDy=0;" edge="1" parent="1" source="mKKfAqHW9Lcpp3ZH1Yp7-156" target="mKKfAqHW9Lcpp3ZH1Yp7-158">
          <mxGeometry relative="1" as="geometry" />
        </mxCell>
        <mxCell id="mKKfAqHW9Lcpp3ZH1Yp7-164" style="edgeStyle=orthogonalEdgeStyle;rounded=0;orthogonalLoop=1;jettySize=auto;html=1;entryX=0.5;entryY=0;entryDx=0;entryDy=0;" edge="1" parent="1" source="mKKfAqHW9Lcpp3ZH1Yp7-156" target="mKKfAqHW9Lcpp3ZH1Yp7-162">
          <mxGeometry relative="1" as="geometry">
            <Array as="points">
              <mxPoint x="2236" y="43" />
              <mxPoint x="2236" y="358" />
            </Array>
          </mxGeometry>
        </mxCell>
        <mxCell id="mKKfAqHW9Lcpp3ZH1Yp7-156" value="horas &amp;gt; 20" style="rhombus;whiteSpace=wrap;html=1;" vertex="1" parent="1">
          <mxGeometry x="2070" y="3" width="80" height="80" as="geometry" />
        </mxCell>
        <mxCell id="mKKfAqHW9Lcpp3ZH1Yp7-161" style="edgeStyle=orthogonalEdgeStyle;rounded=0;orthogonalLoop=1;jettySize=auto;html=1;entryX=0.5;entryY=0;entryDx=0;entryDy=0;" edge="1" parent="1" source="mKKfAqHW9Lcpp3ZH1Yp7-158" target="mKKfAqHW9Lcpp3ZH1Yp7-160">
          <mxGeometry relative="1" as="geometry" />
        </mxCell>
        <mxCell id="mKKfAqHW9Lcpp3ZH1Yp7-158" value="resultado = salario base*0.03" style="rounded=0;whiteSpace=wrap;html=1;" vertex="1" parent="1">
          <mxGeometry x="1941" y="135" width="120" height="60" as="geometry" />
        </mxCell>
        <mxCell id="mKKfAqHW9Lcpp3ZH1Yp7-163" style="edgeStyle=orthogonalEdgeStyle;rounded=0;orthogonalLoop=1;jettySize=auto;html=1;entryX=0.5;entryY=0;entryDx=0;entryDy=0;" edge="1" parent="1" source="mKKfAqHW9Lcpp3ZH1Yp7-160" target="mKKfAqHW9Lcpp3ZH1Yp7-162">
          <mxGeometry relative="1" as="geometry" />
        </mxCell>
        <mxCell id="mKKfAqHW9Lcpp3ZH1Yp7-160" value="salário líquido = resultado + salario liquido" style="rounded=0;whiteSpace=wrap;html=1;" vertex="1" parent="1">
          <mxGeometry x="1941" y="230" width="120" height="60" as="geometry" />
        </mxCell>
        <mxCell id="mKKfAqHW9Lcpp3ZH1Yp7-162" value="" style="ellipse;whiteSpace=wrap;html=1;aspect=fixed;" vertex="1" parent="1">
          <mxGeometry x="2040" y="358" width="80" height="80" as="geometry" />
        </mxCell>
        <mxCell id="mKKfAqHW9Lcpp3ZH1Yp7-165" value="sim" style="text;html=1;align=center;verticalAlign=middle;whiteSpace=wrap;rounded=0;" vertex="1" parent="1">
          <mxGeometry x="2010" y="19" width="60" height="30" as="geometry" />
        </mxCell>
        <mxCell id="mKKfAqHW9Lcpp3ZH1Yp7-166" value="não" style="text;html=1;align=center;verticalAlign=middle;whiteSpace=wrap;rounded=0;" vertex="1" parent="1">
          <mxGeometry x="2162" y="22" width="60" height="30" as="geometry" />
        </mxCell>
      </root>
    </mxGraphModel>
  </diagram>
</mxfile>
